<svg xmlns="http://www.w3.org/2000/svg" viewBox="0 0 100 100"><g id="SvgjsG14499" fill="#04946d"><path d="M57.712 70.215H42.03a1.5 1.5 0 01-1.5-1.5v-1.113c0-2.39-1.513-4.818-3.113-7.389-2.127-3.414-4.536-7.282-4.536-12.396 0-9.296 7.563-16.859 16.858-16.859s16.859 7.563 16.859 16.859c0 4.357-2.1 7.982-4.13 11.489-1.676 2.896-3.257 5.629-3.257 8.296v1.113a1.5 1.5 0 01-1.499 1.5zm-14.191-3h12.697c.126-3.315 1.841-6.278 3.651-9.409 1.834-3.167 3.729-6.438 3.729-9.989 0-7.642-6.218-13.859-13.859-13.859s-13.858 6.218-13.858 13.859c0 4.257 2.075 7.588 4.082 10.81 1.683 2.703 3.423 5.495 3.558 8.588zM56.599 76.5H43.145a1.5 1.5 0 010-3h13.454a1.5 1.5 0 010 3zm-2.638 6h-8.179a1.5 1.5 0 010-3h8.179a1.5 1.5 0 010 3zm-4.222-56.794a1.5 1.5 0 01-1.5-1.5v-7.519a1.5 1.5 0 013 0v7.519a1.5 1.5 0 01-1.5 1.5zm17.016 6.595a1.5 1.5 0 01-1.061-2.56l5.54-5.539a1.5 1.5 0 112.121 2.121l-5.54 5.539a1.497 1.497 0 01-1.06.439zm-39.307 39.57a1.499 1.499 0 01-1.085-2.536l5.54-5.804a1.5 1.5 0 012.17 2.072l-5.54 5.804a1.494 1.494 0 01-1.085.464zM81 49.316h-7.255a1.5 1.5 0 010-3H81a1.5 1.5 0 010 3zm-55.002 0h-7.123a1.5 1.5 0 010-3h7.123a1.5 1.5 0 010 3zm6.858-16.882c-.384 0-.768-.146-1.061-.439l-5.276-5.276a1.5 1.5 0 112.121-2.121l5.276 5.276a1.5 1.5 0 01-1.06 2.56zm39.307 39.042c-.384 0-.768-.146-1.061-.439l-5.276-5.276a1.5 1.5 0 112.121-2.121l5.276 5.276a1.5 1.5 0 01-1.06 2.56z"/><path d="M43.556 55.327c-.384 0-.768-.146-1.061-.439-3.998-3.999-3.998-10.506 0-14.505 4.001-3.998 10.507-3.997 14.504 0a1.5 1.5 0 11-2.121 2.121c-2.828-2.828-7.432-2.828-10.262 0-2.828 2.829-2.828 7.434 0 10.263a1.5 1.5 0 01-1.06 2.56z"/></g></svg>