<svg width="80" height="80" viewBox="0 0 80 80" fill="none" xmlns="http://www.w3.org/2000/svg">
<path d="M46.2004 7.5H19.4004C17.7004 7.5 16.4004 8.8 16.4004 10.5V69.5C16.4004 71.2 17.7004 72.5 19.4004 72.5H60.5004C62.2004 72.5 63.5004 71.2 63.5004 69.5V24.8C63.5004 24 63.2004 23.2 62.6004 22.7L48.4004 8.4C47.8004 7.8 47.0004 7.5 46.2004 7.5Z" stroke="#0C0F1E" stroke-width="2.0968" stroke-miterlimit="10" stroke-linecap="square"/>
<path d="M61.8996 24.5H49.0996C47.3996 24.5 46.0996 23.2 46.0996 21.5V9.20001" stroke="black" stroke-width="2" stroke-miterlimit="10" stroke-linecap="square"/>
<path d="M40 67.8C43.3137 67.8 46 65.1137 46 61.8C46 58.4863 43.3137 55.8 40 55.8C36.6863 55.8 34 58.4863 34 61.8C34 65.1137 36.6863 67.8 40 67.8Z" fill="#EA1E31"/>
<path d="M23.4004 21.6H39.9004" stroke="#0C0F1E" stroke-width="2" stroke-miterlimit="10" stroke-linecap="round"/>
<path d="M23.5 32.7H54.4" stroke="#0C0F1E" stroke-width="2" stroke-miterlimit="10" stroke-linecap="round"/>
<path d="M23.5 41.7H54.4" stroke="#0C0F1E" stroke-width="2" stroke-miterlimit="10" stroke-linecap="round"/>
<path d="M23.5 50.6H54.4" stroke="#0C0F1E" stroke-width="2" stroke-miterlimit="10" stroke-linecap="round"/>
<path d="M23.5 32.7H54.4" stroke="#0C0F1E" stroke-width="2" stroke-miterlimit="10" stroke-linecap="round"/>
</svg>
