<svg width="80" height="80" viewBox="0 0 80 80" fill="none" xmlns="http://www.w3.org/2000/svg">
<path d="M40 2C61 2 78 19 78 40C78 61 61 78 40 78C19 78 2 61 2 40C2 19 19 2 40 2ZM40 0C17.9 0 0 17.9 0 40C0 62.1 17.9 80 40 80C62.1 80 80 62.1 80 40C80 17.9 62.1 0 40 0Z" fill="#0C0F1E"/>
<path d="M40 40.5C39.4 40.5 39 40.1 39 39.5V12.5C39 11.9 39.4 11.5 40 11.5C40.6 11.5 41 11.9 41 12.5V39.5C41 40 40.6 40.5 40 40.5Z" fill="#0C0F1E"/>
<path d="M40 7.5C39.4 7.5 39 7.1 39 6.5V1.5C39 0.9 39.4 0.5 40 0.5C40.6 0.5 41 0.9 41 1.5V6.5C41 7 40.6 7.5 40 7.5Z" fill="#0C0F1E"/>
<path d="M16.2992 17.3C15.9992 17.3 15.7992 17.2 15.5992 17L11.9992 13.5C11.5992 13.1 11.5992 12.5 11.9992 12.1C12.3992 11.7 12.9992 11.7 13.3992 12.1L16.8992 15.6C17.2992 16 17.2992 16.6 16.8992 17C16.7992 17.2 16.4992 17.3 16.2992 17.3Z" fill="#0C0F1E"/>
<path d="M6.5 41H1.5C0.9 41 0.5 40.6 0.5 40C0.5 39.4 0.9 39 1.5 39H6.5C7.1 39 7.5 39.4 7.5 40C7.5 40.6 7 41 6.5 41Z" fill="#0C0F1E"/>
<path d="M12.8008 68.1999C12.5008 68.1999 12.3008 68.1 12.1008 67.9C11.7008 67.5 11.7008 66.9 12.1008 66.5L15.6008 63C16.0008 62.6 16.6008 62.6 17.0008 63C17.4008 63.4 17.4008 64 17.0008 64.4L13.5008 68C13.3008 68.1 13.0008 68.1999 12.8008 68.1999Z" fill="#0C0F1E"/>
<path d="M40 79.5C39.4 79.5 39 79.1 39 78.5V73.5C39 72.9 39.4 72.5 40 72.5C40.6 72.5 41 72.9 41 73.5V78.5C41 79.1 40.6 79.5 40 79.5Z" fill="#0C0F1E"/>
<path d="M67.1992 68.1999C66.8992 68.1999 66.6992 68.1 66.4992 67.9L62.9992 64.4C62.5992 64 62.5992 63.4 62.9992 63C63.3992 62.6 63.9992 62.6 64.3992 63L67.8992 66.5C68.2992 66.9 68.2992 67.5 67.8992 67.9C67.7992 68.1 67.4992 68.1999 67.1992 68.1999Z" fill="#0C0F1E"/>
<path d="M78.5 41H73.5C72.9 41 72.5 40.6 72.5 40C72.5 39.4 72.9 39 73.5 39H78.5C79.1 39 79.5 39.4 79.5 40C79.5 40.6 79.1 41 78.5 41Z" fill="#0C0F1E"/>
<path d="M41.3008 40.0001C41.0008 40.0001 40.8008 39.9001 40.6008 39.7001C40.2008 39.3001 40.2008 38.7001 40.6008 38.3001L62.5008 16.4001C62.9008 16.0001 63.5008 16.0001 63.9008 16.4001C64.3008 16.8001 64.3008 17.4001 63.9008 17.8001L42.1008 39.7001C41.9008 39.9001 41.6008 40.0001 41.3008 40.0001Z" fill="#0C0F1E"/>
<path d="M40 46C43.3137 46 46 43.3137 46 40C46 36.6863 43.3137 34 40 34C36.6863 34 34 36.6863 34 40C34 43.3137 36.6863 46 40 46Z" fill="#DB1869"/>
</svg>
