<svg width="80" height="80" viewBox="0 0 80 80" fill="none" xmlns="http://www.w3.org/2000/svg">
<path d="M37.9004 2C49.4004 2 59.5004 10.2 61.8004 21.5L62.0004 22.5L62.9004 22.9L72.8004 27.8L62.6004 31.9L61.7004 32.3L61.4004 33.2C58.4004 43.5 48.8004 50.7 38.0004 50.7C37.7004 50.7 37.3004 50.7 37.0004 50.7C30.2004 50.4 24.0004 47.4 19.5004 42.3C15.0004 37.1 13.0004 30.5 13.7004 23.7C14.9004 11.9 24.9004 2.6 36.7004 2C37.1004 2 37.5004 2 37.9004 2ZM37.9004 0C37.5004 0 37.1004 0 36.7004 0C23.8004 0.6 13.1004 10.7 11.7004 23.5C10.1004 38.8 21.7004 52.1 36.8004 52.7C37.2004 52.7 37.5004 52.7 37.9004 52.7C49.8004 52.7 60.0004 44.7 63.2004 33.7L73.4004 29.6C75.0004 29 75.1004 26.7 73.5004 26L63.6004 21.1C61.3004 9.1 50.7004 0 37.9004 0Z" fill="#0C0F1E"/>
<path d="M39.3008 46.1C42.6145 46.1 45.3008 43.4137 45.3008 40.1C45.3008 36.7863 42.6145 34.1 39.3008 34.1C35.9871 34.1 33.3008 36.7863 33.3008 40.1C33.3008 43.4137 35.9871 46.1 39.3008 46.1Z" fill="#EA1E31"/>
<path d="M42.1003 27.3V29.3C42.5003 29.3 42.8003 29.3 43.2003 29.3C55.1003 29.8 65.0003 39.2 66.3003 51C67.0003 57.8 65.0003 64.4 60.5003 69.5C56.0003 74.7 49.8003 77.7 43.0003 77.9C42.7003 77.9 42.3003 77.9 42.0003 77.9C31.2003 77.9 21.6003 70.7 18.6003 60.4L18.3003 59.5L17.4003 59.1L7.3003 55L17.2003 50.1L18.1003 49.7L18.3003 48.7C20.6003 37.4 30.7003 29.2 42.2003 29.2L42.1003 27.3ZM42.1003 27.3C29.2003 27.3 18.7003 36.4 16.2003 48.4L6.3003 53.3C4.8003 54.1 4.8003 56.3 6.4003 56.9L16.8003 61C20.0003 72 30.2003 80 42.1003 80C42.5003 80 42.8003 80 43.2003 80C58.3003 79.4 70.0003 66.1 68.3003 50.8C66.9003 38 56.2003 27.9 43.3003 27.3C42.9003 27.3 42.5003 27.3 42.1003 27.3Z" fill="#0C0F1E"/>
</svg>
