<svg width="80" height="80" viewBox="0 0 80 80" fill="none" xmlns="http://www.w3.org/2000/svg">
<path d="M39.9988 13.4C40.1988 13.4 40.3988 13.4 40.5988 13.6L65.9988 33.9L39.9988 54.6L13.9988 33.9L39.3988 13.7C39.5988 13.5 39.7988 13.4 39.9988 13.4ZM39.9988 11.4C39.2988 11.4 38.6988 11.6 38.0988 12.1L10.7988 33.9L39.9988 57.2L69.1988 33.9L41.8988 12.1C41.2988 11.6 40.6988 11.4 39.9988 11.4Z" fill="#0C0F1E"/>
<path d="M66.2992 69.6H13.6992C11.9992 69.6 10.6992 68.3 10.6992 66.6V33.9H12.6992V66.6C12.6992 67.2 13.0992 67.6 13.6992 67.6H66.2992C66.8992 67.6 67.2992 67.2 67.2992 66.6V33.9H69.2992V66.6C69.2992 68.2 67.9992 69.6 66.2992 69.6Z" fill="#0C0F1E"/>
<path d="M46.1984 42.6H30.3984C29.7984 42.6 29.3984 42.2 29.3984 41.6C29.3984 41 29.7984 40.6 30.3984 40.6H46.1984C46.7984 40.6 47.1984 41 47.1984 41.6C47.1984 42.2 46.7984 42.6 46.1984 42.6Z" fill="#0C0F1E"/>
<path d="M56.6988 36.2001H36.7988C36.1988 36.2001 35.7988 35.8001 35.7988 35.2001C35.7988 34.6001 36.1988 34.2001 36.7988 34.2001H56.6988C57.2988 34.2001 57.6988 34.6001 57.6988 35.2001C57.6988 35.8001 57.2988 36.2001 56.6988 36.2001Z" fill="#0C0F1E"/>
<path d="M42.5992 29.8H27.1992C26.5992 29.8 26.1992 29.4 26.1992 28.8C26.1992 28.2 26.5992 27.8 27.1992 27.8H42.5992C43.1992 27.8 43.5992 28.2 43.5992 28.8C43.5992 29.4 43.0992 29.8 42.5992 29.8Z" fill="#0C0F1E"/>
<path d="M40 59.8C43.3137 59.8 46 57.1138 46 53.8C46 50.4863 43.3137 47.8 40 47.8C36.6863 47.8 34 50.4863 34 53.8C34 57.1138 36.6863 59.8 40 59.8Z" fill="#EA1E31"/>
</svg>
