<svg width="80" height="80" viewBox="0 0 80 80" fill="none" xmlns="http://www.w3.org/2000/svg">
<path d="M40 46C43.3137 46 46 43.3137 46 40C46 36.6863 43.3137 34 40 34C36.6863 34 34 36.6863 34 40C34 43.3137 36.6863 46 40 46Z" fill="#DB1869"/>
<path d="M40.0008 23.8C48.9008 23.8 56.2008 31.1 56.2008 40C56.2008 48.9 48.9008 56.2001 40.0008 56.2001C31.1008 56.2001 23.8008 48.9 23.8008 40C23.8008 31.1 31.1008 23.8 40.0008 23.8ZM40.0008 21.8C30.0008 21.8 21.8008 30 21.8008 40C21.8008 50 30.0008 58.2001 40.0008 58.2001C50.0008 58.2001 58.2008 50 58.2008 40C58.2008 30 50.0008 21.8 40.0008 21.8Z" fill="#0C0F1E"/>
<path d="M44.1 2L46.5 12.6C46.7 13.3 47.2 13.9 47.9 14.1C49.6 14.6 51.2 15.3 52.8 16.1C53.4 16.4 54.2 16.4 54.8 16L63.8 10.3H63.9C63.9 10.3 64 10.3 64.1 10.4L69.7 16L64 25.2C63.6 25.8 63.6 26.6 63.9 27.2C64.7 28.8 65.4 30.4 65.9 32.1C66.1 32.8 66.7 33.3 67.4 33.5L77.8 35.9C77.9 35.9 78 36 78 36.2V44.2L67.4 46.6C66.7 46.8 66.1 47.3 65.9 48C65.4 49.7 64.7 51.3 63.9 52.9C63.6 53.5 63.6 54.3 64 54.9L69.7 63.9C69.8 64 69.8 64.1 69.7 64.2L64 69.8L54.8 64C54.2 63.6 53.4 63.6 52.8 63.9C51.2 64.7 49.6 65.4 47.9 65.9C47.2 66.1 46.7 66.7 46.5 67.4L44.1 77.8C44.1 77.9 44 78 43.8 78H35.8L33.4 67.4C33.2 66.7 32.7 66.1 32 65.9C30.3 65.4 28.7 64.7 27.1 63.9C26.5 63.6 25.7 63.6 25.1 64L16 69.8L10.2 64L16 54.8C16.4 54.2 16.4 53.4 16.1 52.8C15.3 51.2 14.6 49.6 14.1 47.9C13.9 47.2 13.3 46.7 12.6 46.5L2 44.1V35.9L12.6 33.5C13.3 33.3 13.9 32.8 14.1 32.1C14.6 30.4 15.3 28.8 16.1 27.2C16.4 26.6 16.4 25.8 16 25.2L10.2 16L16 10.2L25.2 16C25.8 16.4 26.6 16.4 27.2 16.1C28.8 15.3 30.4 14.6 32.1 14.1C32.8 13.9 33.3 13.3 33.5 12.6L35.9 2H44.1ZM44.6 0H35.4C34.8 0 34.2 0.4 34.1 1.1L31.6 12.2C29.8 12.8 28 13.5 26.4 14.4L16.8 8.3C16.6 8.2 16.3 8.1 16.1 8.1C15.7 8.1 15.4 8.2 15.1 8.5L8.5 15C8.1 15.4 8 16.2 8.3 16.7L14.4 26.3C13.5 28 12.8 29.7 12.2 31.5L1.1 34.1C0.4 34.2 0 34.8 0 35.4V44.6C0 45.2 0.4 45.8 1.1 45.9L12.2 48.4C12.8 50.2 13.5 52 14.4 53.6L8.3 63.2C7.9 63.9 8 64.6 8.5 65L15 71.5C15.3 71.8 15.6 71.9 16 71.9C16.2 71.9 16.5 71.8 16.7 71.7L26.3 65.6C28 66.5 29.7 67.2 31.5 67.8L34 78.6C34.2 79.4 34.9 80 35.8 80H43.9C45 80 45.9 79.3 46.1 78.2L48.5 67.8C50.3 67.2 52.1 66.5 53.7 65.6L63 71.5C63.3 71.7 63.6 71.8 64 71.8C64.5 71.8 64.9 71.6 65.3 71.3L71 65.6C71.7 64.9 71.9 63.7 71.3 62.8L65.6 53.8C66.5 52.1 67.2 50.4 67.8 48.6L78.6 46C79.4 45.8 80 45.1 80 44.2V36.1C80 35 79.3 34.1 78.2 33.9L67.8 31.5C67.2 29.7 66.5 27.9 65.6 26.3L71.5 17C72 16.3 71.8 15.3 71.2 14.7L65.5 9C65.1 8.6 64.5 8.3 63.9 8.3C63.5 8.3 63.1 8.4 62.7 8.6L53.7 14.3C52 13.4 50.3 12.7 48.5 12.1L45.9 1.1C45.8 0.4 45.2 0 44.6 0Z" fill="#0C0F1E"/>
</svg>
