<svg width="80" height="80" viewBox="0 0 80 80" fill="none" xmlns="http://www.w3.org/2000/svg">
<path d="M63.6016 12.5C64.9016 12.5 65.9016 12.8 66.6016 13.4C69.9016 16.7 64.4016 31.4 47.9016 47.9C36.4016 59.4 23.4016 67.5 16.4016 67.5C15.1016 67.5 14.1016 67.2 13.4016 66.6C10.1016 63.3 15.6016 48.6 32.1016 32.1C43.6016 20.6 56.6016 12.5 63.6016 12.5ZM63.6016 10.5C56.2016 10.5 43.0016 18.3 30.7016 30.7C15.2016 46.1 6.90161 62.8 12.0016 68C13.0016 69 14.5016 69.5 16.4016 69.5C23.8016 69.5 37.0016 61.7 49.3016 49.3C64.8016 33.9 73.1016 17.2 68.0016 12C66.9016 11 65.5016 10.5 63.6016 10.5Z" fill="#0C0F1E"/>
<path d="M40 46C43.3137 46 46 43.3137 46 40C46 36.6863 43.3137 34 40 34C36.6863 34 34 36.6863 34 40C34 43.3137 36.6863 46 40 46Z" fill="#EA1E31"/>
<path d="M16.401 10.5V12.5C23.401 12.5 36.401 20.6 47.901 32.1C64.401 48.6 69.901 63.3 66.601 66.6C66.001 67.2 65.001 67.5 63.601 67.5C56.601 67.5 43.601 59.4 32.101 47.9C15.601 31.4 10.101 16.7 13.401 13.4C14.001 12.8 15.001 12.5 16.401 12.5V10.5ZM16.401 10.5C14.501 10.5 13.101 11 12.001 12C6.80096 17.2 15.201 33.9 30.701 49.3C43.001 61.7 56.201 69.5 63.601 69.5C65.501 69.5 66.901 69 68.001 68C73.201 62.8 64.801 46.1 49.301 30.7C37.001 18.3 23.801 10.5 16.401 10.5Z" fill="#0C0F1E"/>
</svg>
