<svg width="80" height="80" viewBox="0 0 80 80" fill="none" xmlns="http://www.w3.org/2000/svg">
<path d="M40 46C43.3137 46 46 43.3137 46 40C46 36.6863 43.3137 34 40 34C36.6863 34 34 36.6863 34 40C34 43.3137 36.6863 46 40 46Z" fill="#DB1869"/>
<path d="M40 9.40002C56.8 9.40002 70.5 23.1 70.5 39.9C70.5 56.7 56.8 70.4 40 70.4C23.2 70.4 9.5 56.7 9.5 39.9C9.5 23.1 23.2 9.40002 40 9.40002ZM40 7.40002C22.1 7.40002 7.5 22 7.5 39.9C7.5 57.8 22.1 72.4 40 72.4C57.9 72.4 72.5 57.8 72.5 39.9C72.5 22 57.9 7.40002 40 7.40002Z" fill="#0C0F1E"/>
<path d="M40.0004 23.9C48.9004 23.9 56.1004 31.1 56.1004 40C56.1004 48.9 48.9004 56 40.0004 56C31.1004 56 23.9004 48.8 23.9004 39.9C23.9004 31 31.1004 23.9 40.0004 23.9ZM40.0004 21.9C30.0004 21.9 21.9004 30 21.9004 40C21.9004 50 30.0004 58 40.0004 58C50.0004 58 58.1004 49.9 58.1004 39.9C58.1004 29.9 50.0004 21.9 40.0004 21.9Z" fill="#0C0F1E"/>
<path d="M40 23.4C39.4 23.4 39 23 39 22.4V1.5C39 0.9 39.4 0.5 40 0.5C40.6 0.5 41 0.9 41 1.5V22.4C41 23 40.6 23.4 40 23.4Z" fill="#0C0F1E"/>
<path d="M40 79.5C39.4 79.5 39 79.1 39 78.5V57.6C39 57 39.4 56.6 40 56.6C40.6 56.6 41 57 41 57.6V78.5C41 79.1 40.6 79.5 40 79.5Z" fill="#0C0F1E"/>
<path d="M22.4 41H1.5C0.9 41 0.5 40.6 0.5 40C0.5 39.4 0.9 39 1.5 39H22.4C23 39 23.4 39.4 23.4 40C23.4 40.6 23 41 22.4 41Z" fill="#0C0F1E"/>
<path d="M78.5 41H58.5C57.9 41 57.5 40.6 57.5 40C57.5 39.4 57.9 39 58.5 39H78.5C79.1 39 79.5 39.4 79.5 40C79.5 40.6 79.1 41 78.5 41Z" fill="#0C0F1E"/>
</svg>
