<svg width="80" height="80" viewBox="0 0 80 80" fill="none" xmlns="http://www.w3.org/2000/svg">
<path d="M40 39.6C43.3137 39.6 46 36.9137 46 33.6C46 30.2863 43.3137 27.6 40 27.6C36.6863 27.6 34 30.2863 34 33.6C34 36.9137 36.6863 39.6 40 39.6Z" fill="#DB1869"/>
<path d="M70.6004 63H9.40039C8.30039 63 7.40039 62.1 7.40039 61V52.8V19C7.40039 17.9 8.30039 17 9.40039 17H70.7004C71.8004 17 72.7004 17.9 72.7004 19V61C72.7004 62.1 71.8004 63 70.6004 63Z" stroke="#0C0F1E" stroke-width="2" stroke-miterlimit="10"/>
<path d="M7.80078 49.7L25.3008 39.3C26.8008 38.4 28.8008 38.4 30.3008 39.3L47.8008 49.5" stroke="#0C0F1E" stroke-width="2" stroke-miterlimit="10" stroke-linecap="round" stroke-linejoin="round"/>
<path d="M43.3008 46.5L55.3008 36.1C57.0008 34.8 59.4008 35 60.8008 36.5L72.0008 51" stroke="#0C0F1E" stroke-width="2" stroke-miterlimit="10" stroke-linecap="round"/>
</svg>
