<svg width="628" height="330" fill="none" xmlns="http://www.w3.org/2000/svg"><path d="M335.599 289c-3 0-5.7-2.1-6.3-5.1-.7-3.5 1.5-6.9 5-7.6 6.5-1.3 12.8-3.3 18.9-5.9 6-2.5 11.7-5.6 17.1-9.3 5.3-3.6 10.4-7.8 14.9-12.3 4.6-4.6 8.7-9.6 12.3-14.9 3.6-5.4 6.8-11.2 9.3-17.1 2.6-6.1 4.6-12.5 5.9-18.9 1.4-6.6 2.1-13.5 2.1-20.3 0-6.9-.7-13.7-2.1-20.3-1.3-6.5-3.3-12.8-5.9-18.9-2.5-6-5.7-11.7-9.3-17.1-3.6-5.3-7.8-10.4-12.3-14.9-4.6-4.6-9.6-8.7-14.9-12.3-5.4-3.6-11.1-6.8-17.1-9.3-6.1-2.6-12.5-4.6-18.9-5.9l-1.5-.3c-3.5-.7-5.8-4-5.2-7.5.7-3.5 4-5.8 7.5-5.2l1.7.3c7.3 1.5 14.5 3.7 21.4 6.6 6.7 2.9 13.2 6.4 19.3 10.5 6 4.1 11.7 8.7 16.8 13.9 5.1 5.1 9.8 10.8 13.9 16.8 4.1 6.1 7.6 12.6 10.5 19.3 2.9 6.9 5.1 14.1 6.6 21.4 1.5 7.5 2.3 15.2 2.3 22.9 0 7.7-.8 15.4-2.3 22.9-1.5 7.3-3.7 14.5-6.6 21.4-2.9 6.7-6.4 13.2-10.5 19.3-4.1 6-8.7 11.7-13.9 16.8-5.1 5.1-10.8 9.8-16.8 13.9-6.1 4.1-12.6 7.6-19.3 10.5-6.9 2.9-14 5.1-21.4 6.6h-1.2z" fill="#0C0F1E"/><path d="M313.999 268.4c-7.7 0-15.4-.8-22.9-2.3-7.3-1.5-14.5-3.7-21.4-6.6-6.7-2.8-13.2-6.4-19.3-10.5-6-4.1-11.7-8.7-16.8-13.9-5.2-5.2-9.8-10.8-13.9-16.8-4.1-6.1-7.6-12.6-10.5-19.3-2.9-6.9-5.1-14.1-6.6-21.4-1.5-7.5-2.3-15.2-2.3-22.9 0-7.7.8-15.4 2.3-22.9 1.5-7.3 3.7-14.5 6.6-21.4 2.9-6.7 6.4-13.2 10.5-19.3 4.1-6 8.7-11.7 13.9-16.8 5.2-5.1 10.8-9.8 16.8-13.9 6.1-4.1 12.6-7.6 19.3-10.5 6.9-2.9 14.1-5.1 21.4-6.6 14.4-2.9 29.7-3.1 44.2-.3 3.5.7 5.8 4 5.1 7.5-.7 3.5-4 5.8-7.5 5.1-12.8-2.4-26.4-2.3-39.2.3-6.5 1.3-12.8 3.3-18.9 5.9-6 2.5-11.7 5.7-17.1 9.3-5.3 3.6-10.4 7.8-14.9 12.3-4.6 4.6-8.7 9.6-12.3 14.9-3.6 5.4-6.8 11.2-9.3 17.1-2.6 6.1-4.6 12.5-5.9 18.9-1.4 6.6-2.1 13.5-2.1 20.3 0 6.8.7 13.7 2 20.3 1.3 6.5 3.3 12.8 5.9 18.9 2.5 6 5.7 11.7 9.3 17.1 3.6 5.3 7.7 10.4 12.3 14.9 4.6 4.6 9.6 8.7 14.9 12.3 5.4 3.6 11.2 6.8 17.1 9.3 6.1 2.6 12.4 4.5 18.9 5.9 13.3 2.7 27.4 2.7 40.7 0 3.5-.7 6.9 1.5 7.6 5 .7 3.5-1.5 6.9-5 7.6-7.5 1.8-15.2 2.5-22.9 2.5zM102.5 53.9c2.8-4.6 6.1-7.9 10-9.9 3.9-2 8.1-3 12.6-3 2.6 0 5 .4 7.4 1.1 2.4.7 4.5 1.9 6.4 3.5 1.9 1.6 3.3 3.6 4.4 6.1 1.1 2.5 1.6 5.4 1.6 8.9V197h24.6c3.5 0 6.1 1.1 7.9 3.3 1.8 2.2 2.6 4.6 2.6 7.3s-.9 5.1-2.6 7.3c-1.7 2.2-4.4 3.3-7.9 3.3h-24.7v37.6c0 2.1-.4 4-1.2 5.6-.8 1.6-1.8 2.9-3.1 4s-2.7 1.9-4.3 2.4c-1.6.5-3.2.8-4.9.8-1.7 0-3.4-.3-5-.8-1.7-.5-3.1-1.3-4.4-2.4-1.3-1.1-2.3-2.4-3.2-4-.9-1.6-1.3-3.5-1.3-5.6V218h-92c-4.7 0-8.4-1.5-11.2-4.5-2.8-3-4.1-6.6-4.1-10.6 0-1.6.2-3.3.6-5 .4-1.8 1.2-3.4 2.4-5l89.4-139zM34.4 197h82.9V67L34.4 197z" fill="#FF0027"/><path d="M540.5 73.9c2.8-4.6 6.1-7.9 10-9.9 3.9-2 8.1-3 12.6-3 2.6 0 5 .4 7.4 1.1 2.4.7 4.5 1.9 6.4 3.5 1.9 1.6 3.3 3.6 4.4 6.1 1.1 2.5 1.6 5.4 1.6 8.9V217h24.6c3.5 0 6.1 1.1 7.9 3.3 1.8 2.2 2.6 4.6 2.6 7.3s-.9 5.1-2.6 7.3c-1.7 2.2-4.4 3.3-7.9 3.3h-24.7v37.6c0 2.1-.4 4-1.2 5.6-.8 1.6-1.8 2.9-3.1 4s-2.7 1.9-4.3 2.4c-1.6.5-3.2.8-4.9.8-1.7 0-3.4-.3-5-.8-1.7-.5-3.1-1.3-4.4-2.4-1.3-1.1-2.3-2.4-3.2-4-.9-1.6-1.3-3.5-1.3-5.6V238h-92c-4.7 0-8.4-1.5-11.2-4.5-2.8-3-4.1-6.6-4.1-10.6 0-1.6.2-3.3.6-5 .4-1.8 1.2-3.4 2.4-5l89.4-139zM472.4 217h82.9V87l-82.9 130z" fill="#000"/></svg>