<svg width="80" height="80" fill="none" xmlns="http://www.w3.org/2000/svg"><path d="M40 39.6a6 6 0 100-12 6 6 0 000 12z" fill="#FF0027"/><path d="M70.6 63H9.4c-1.1 0-2-.9-2-2V19c0-1.1.9-2 2-2h61.3c1.1 0 2 .9 2 2v42c0 1.1-.9 2-2.1 2z" stroke="#0C0F1E" stroke-width="2" stroke-miterlimit="10"/><path d="M7.8 49.7l17.5-10.4c1.5-.9 3.5-.9 5 0l17.5 10.2" stroke="#0C0F1E" stroke-width="2" stroke-miterlimit="10" stroke-linecap="round" stroke-linejoin="round"/><path d="M43.3 46.5l12-10.4c1.7-1.3 4.1-1.1 5.5.4L72 51" stroke="#0C0F1E" stroke-width="2" stroke-miterlimit="10" stroke-linecap="round"/></svg>