<svg width="80" height="80" fill="none" xmlns="http://www.w3.org/2000/svg"><path d="M40 46a6 6 0 100-12 6 6 0 000 12z" fill="#DB1869"/><path d="M40 23.8c8.9 0 16.2 7.3 16.2 16.2 0 8.9-7.3 16.2-16.2 16.2-8.9 0-16.2-7.3-16.2-16.2 0-8.9 7.3-16.2 16.2-16.2zm0-2C30 21.8 21.8 30 21.8 40S30 58.2 40 58.2 58.2 50 58.2 40 50 21.8 40 21.8z" fill="#0C0F1E"/><path d="M44.1 2l2.4 10.6c.2.7.7 1.3 1.4 1.5 1.7.5 3.3 1.2 4.9 2 .6.3 1.4.3 2-.1l9-5.7h.1s.1 0 .2.1l5.6 5.6-5.7 9.2c-.4.6-.4 1.4-.1 2 .8 1.6 1.5 3.2 2 4.9.2.7.8 1.2 1.5 1.4l10.4 2.4c.1 0 .2.1.2.3v8l-10.6 2.4c-.7.2-1.3.7-1.5 1.4-.5 1.7-1.2 3.3-2 4.9-.3.6-.3 1.4.1 2l5.7 9c.1.1.1.2 0 .3L64 69.8 54.8 64c-.6-.4-1.4-.4-2-.1-1.6.8-3.2 1.5-4.9 2-.7.2-1.2.8-1.4 1.5l-2.4 10.4c0 .1-.1.2-.3.2h-8l-2.4-10.6c-.2-.7-.7-1.3-1.4-1.5-1.7-.5-3.3-1.2-4.9-2-.6-.3-1.4-.3-2 .1L16 69.8 10.2 64l5.8-9.2c.4-.6.4-1.4.1-2-.8-1.6-1.5-3.2-2-4.9-.2-.7-.8-1.2-1.5-1.4L2 44.1v-8.2l10.6-2.4c.7-.2 1.3-.7 1.5-1.4.5-1.7 1.2-3.3 2-4.9.3-.6.3-1.4-.1-2L10.2 16l5.8-5.8 9.2 5.8c.6.4 1.4.4 2 .1 1.6-.8 3.2-1.5 4.9-2 .7-.2 1.2-.8 1.4-1.5L35.9 2h8.2zm.5-2h-9.2c-.6 0-1.2.4-1.3 1.1l-2.5 11.1c-1.8.6-3.6 1.3-5.2 2.2l-9.6-6.1c-.2-.1-.5-.2-.7-.2-.4 0-.7.1-1 .4L8.5 15c-.4.4-.5 1.2-.2 1.7l6.1 9.6c-.9 1.7-1.6 3.4-2.2 5.2L1.1 34.1c-.7.1-1.1.7-1.1 1.3v9.2c0 .6.4 1.2 1.1 1.3l11.1 2.5c.6 1.8 1.3 3.6 2.2 5.2l-6.1 9.6c-.4.7-.3 1.4.2 1.8l6.5 6.5c.3.3.6.4 1 .4.2 0 .5-.1.7-.2l9.6-6.1c1.7.9 3.4 1.6 5.2 2.2L34 78.6c.2.8.9 1.4 1.8 1.4h8.1c1.1 0 2-.7 2.2-1.8l2.4-10.4c1.8-.6 3.6-1.3 5.2-2.2l9.3 5.9c.3.2.6.3 1 .3.5 0 .9-.2 1.3-.5l5.7-5.7c.7-.7.9-1.9.3-2.8l-5.7-9c.9-1.7 1.6-3.4 2.2-5.2L78.6 46c.8-.2 1.4-.9 1.4-1.8v-8.1c0-1.1-.7-2-1.8-2.2l-10.4-2.4c-.6-1.8-1.3-3.6-2.2-5.2l5.9-9.3c.5-.7.3-1.7-.3-2.3L65.5 9c-.4-.4-1-.7-1.6-.7-.4 0-.8.1-1.2.3l-9 5.7c-1.7-.9-3.4-1.6-5.2-2.2l-2.6-11C45.8.4 45.2 0 44.6 0z" fill="#0C0F1E"/></svg>