<svg width="80" height="80" fill="none" xmlns="http://www.w3.org/2000/svg"><path d="M39.999 13.4c.2 0 .4 0 .6.2l25.4 20.3-26 20.7-26-20.7 25.4-20.2c.2-.2.4-.3.6-.3zm0-2c-.7 0-1.3.2-1.9.7l-27.3 21.8 29.2 23.3 29.2-23.3-27.3-21.8c-.6-.5-1.2-.7-1.9-.7z" fill="#0C0F1E"/><path d="M66.3 69.6H13.7c-1.7 0-3-1.3-3-3V33.9h2v32.7c0 .6.4 1 1 1h52.6c.6 0 1-.4 1-1V33.9h2v32.7c0 1.6-1.3 3-3 3z" fill="#0C0F1E"/><path d="M46.198 42.6h-15.8c-.6 0-1-.4-1-1s.4-1 1-1h15.8c.6 0 1 .4 1 1s-.4 1-1 1zm10.501-6.4h-19.9c-.6 0-1-.4-1-1s.4-1 1-1h19.9c.6 0 1 .4 1 1s-.4 1-1 1zM42.6 29.8H27.2c-.6 0-1-.4-1-1s.4-1 1-1h15.4c.6 0 1 .4 1 1s-.5 1-1 1z" fill="#0C0F1E"/><path d="M40 59.8a6 6 0 100-12 6 6 0 000 12z" fill="#EA1E31"/></svg>