<svg width="80" height="80" fill="none" xmlns="http://www.w3.org/2000/svg"><path d="M63.602 12.5c1.3 0 2.3.3 3 .9 3.3 3.3-2.2 18-18.7 34.5-11.5 11.5-24.5 19.6-31.5 19.6-1.3 0-2.3-.3-3-.9-3.3-3.3 2.2-18 18.7-34.5 11.5-11.5 24.5-19.6 31.5-19.6zm0-2c-7.4 0-20.6 7.8-32.9 20.2-15.5 15.4-23.8 32.1-18.7 37.3 1 1 2.5 1.5 4.4 1.5 7.4 0 20.6-7.8 32.9-20.2 15.5-15.4 23.8-32.1 18.7-37.3-1.1-1-2.5-1.5-4.4-1.5z" fill="#0C0F1E"/><path d="M40 46a6 6 0 100-12 6 6 0 000 12z" fill="#EA1E31"/><path d="M16.401 10.5v2c7 0 20 8.1 31.5 19.6 16.5 16.5 22 31.2 18.7 34.5-.6.6-1.6.9-3 .9-7 0-20-8.1-31.5-19.6-16.5-16.5-22-31.2-18.7-34.5.6-.6 1.6-.9 3-.9v-2zm0 0c-1.9 0-3.3.5-4.4 1.5-5.2 5.2 3.2 21.9 18.7 37.3 12.3 12.4 25.5 20.2 32.9 20.2 1.9 0 3.3-.5 4.4-1.5 5.2-5.2-3.2-21.9-18.7-37.3-12.3-12.4-25.5-20.2-32.9-20.2z" fill="#0C0F1E"/></svg>