<svg width="80" height="80" fill="none" xmlns="http://www.w3.org/2000/svg"><path d="M40 2c21 0 38 17 38 38S61 78 40 78 2 61 2 40 19 2 40 2zm0-2C17.9 0 0 17.9 0 40s17.9 40 40 40 40-17.9 40-40S62.1 0 40 0z" fill="#0C0F1E"/><path d="M40 40.5c-.6 0-1-.4-1-1v-27c0-.6.4-1 1-1s1 .4 1 1v27c0 .5-.4 1-1 1zm0-33c-.6 0-1-.4-1-1v-5c0-.6.4-1 1-1s1 .4 1 1v5c0 .5-.4 1-1 1zm-23.7 9.8c-.3 0-.5-.1-.7-.3L12 13.5c-.4-.4-.4-1 0-1.4.4-.4 1-.4 1.4 0l3.5 3.5c.4.4.4 1 0 1.4-.1.2-.4.3-.6.3zM6.5 41h-5c-.6 0-1-.4-1-1s.4-1 1-1h5c.6 0 1 .4 1 1s-.5 1-1 1zm6.3 27.2c-.3 0-.5-.1-.7-.3-.4-.4-.4-1 0-1.4l3.5-3.5c.4-.4 1-.4 1.4 0 .4.4.4 1 0 1.4L13.5 68c-.2.1-.5.2-.7.2zM40 79.5c-.6 0-1-.4-1-1v-5c0-.6.4-1 1-1s1 .4 1 1v5c0 .6-.4 1-1 1zm27.2-11.3c-.3 0-.5-.1-.7-.3L63 64.4c-.4-.4-.4-1 0-1.4.4-.4 1-.4 1.4 0l3.5 3.5c.4.4.4 1 0 1.4-.1.2-.4.3-.7.3zM78.5 41h-5c-.6 0-1-.4-1-1s.4-1 1-1h5c.6 0 1 .4 1 1s-.4 1-1 1z" fill="#0C0F1E"/><path d="M41.3 40c-.3 0-.5-.1-.7-.3-.4-.4-.4-1 0-1.4l21.9-21.9c.4-.4 1-.4 1.4 0 .4.4.4 1 0 1.4L42.1 39.7c-.2.2-.5.3-.8.3z" fill="#0C0F1E"/><path d="M40 46a6 6 0 100-12 6 6 0 000 12z" fill="#DB1869"/></svg>