<svg width="164" height="48" viewBox="0 0 164 52" fill="none" xmlns="http://www.w3.org/2000/svg">
<g opacity="0.9">
<path opacity="0.9" d="M37.6 47.0154C37.6 47.0154 37.3 47.3154 36.7 47.7154C36.1 48.1154 35.2 48.8154 34 49.4154C32.8 50.0154 31.2 50.7154 29.4 51.2154C27.5 51.7154 25.3 52.0154 22.9 51.9154C20.5 51.8154 17.8 51.4154 15.2 50.3154C12.5 49.2154 9.9 47.7154 7.7 45.5154C5.3 43.5154 3.3 40.8154 2 37.7154C1.3 36.2154 0.8 34.6154 0.5 33.0154C0.2 31.4154 0 29.7154 0 28.0154C0 26.3154 0.2 24.6154 0.5 23.0154C0.8 21.4154 1.4 19.8154 2 18.2154C3.3 15.2154 5.3 12.5154 7.6 10.4154C9.9 8.21543 12.5 6.71543 15.2 5.61543C17.8 4.51543 20.5 4.11543 22.9 4.01543C25.3 3.91543 27.6 4.31543 29.4 4.81543C31.3 5.31543 32.9 6.01543 34.1 6.61543C35.3 7.21543 36.2 7.91543 36.8 8.31543C37.3 8.81543 37.6 9.01543 37.6 9.01543C37.6 9.01543 37.3 8.81543 36.6 8.51543C35.9 8.21543 35 7.81543 33.7 7.41543C32.4 7.01543 30.9 6.61543 29.1 6.41543C27.3 6.21543 25.3 6.21543 23.1 6.51543C21 6.81543 18.7 7.51543 16.5 8.61543C14.3 9.71543 12.2 11.2154 10.4 13.1154C8.6 15.0154 7.1 17.3154 6 19.8154C5.5 21.1154 5.1 22.4154 4.8 23.7154C4.5 25.0154 4.4 26.4154 4.4 27.8154C4.4 29.2154 4.5 30.6154 4.8 31.9154C5.1 33.2154 5.4 34.6154 6 35.8154C7 38.3154 8.5 40.6154 10.3 42.5154C12.1 44.4154 14.2 46.0154 16.4 47.0154C18.6 48.1154 20.8 48.8154 23 49.1154C25.1 49.4154 27.2 49.4154 29 49.2154C30.8 49.0154 32.4 48.6154 33.6 48.2154C34.9 47.8154 35.8 47.4154 36.5 47.1154C37.2 47.2154 37.6 47.0154 37.6 47.0154Z" fill="#0C0F1E"/>
</g>
<g opacity="0.9">
<path opacity="0.9" d="M33.6992 48.8154C33.0992 48.8154 32.5992 48.4154 32.4992 47.8154C32.3992 47.1154 32.7992 46.5154 33.3992 46.4154C34.5992 46.2154 35.7992 45.8154 36.8992 45.3154C37.9992 44.8154 39.0992 44.2154 40.0992 43.6154C41.0992 42.9154 41.9992 42.2154 42.8992 41.3154C43.7992 40.4154 44.4992 39.5154 45.1992 38.5154C45.8992 37.5154 46.4992 36.4154 46.8992 35.3154C47.3992 34.2154 47.7992 33.0154 47.9992 31.8154C48.2992 30.6154 48.3992 29.3154 48.3992 28.0154C48.3992 26.7154 48.2992 25.4154 47.9992 24.2154C47.7992 23.0154 47.3992 21.8154 46.8992 20.7154C46.3992 19.6154 45.7992 18.5154 45.1992 17.5154C44.4992 16.5154 43.7992 15.6154 42.8992 14.7154C41.9992 13.8154 41.0992 13.1154 40.0992 12.4154C39.0992 11.7154 37.9992 11.1154 36.8992 10.7154C35.7992 10.2154 34.5992 9.81543 33.3992 9.61543L33.0992 9.51543C32.3992 9.41543 31.9992 8.81543 32.0992 8.11543C32.1992 7.41543 32.7992 7.01543 33.4992 7.11543L33.7992 7.21543C35.1992 7.51543 36.4992 7.91543 37.7992 8.41543C39.0992 8.91543 40.2992 9.61543 41.3992 10.4154C42.4992 11.2154 43.5992 12.0154 44.4992 13.0154C45.4992 14.0154 46.2992 15.0154 47.0992 16.1154C47.8992 17.2154 48.4992 18.5154 49.0992 19.7154C49.5992 21.0154 50.0992 22.3154 50.2992 23.7154C50.5992 25.1154 50.6992 26.5154 50.6992 28.0154C50.6992 29.4154 50.5992 30.9154 50.2992 32.3154C49.9992 33.7154 49.5992 35.0154 49.0992 36.3154C48.5992 37.6154 47.8992 38.8154 47.0992 39.9154C46.2992 41.0154 45.4992 42.1154 44.4992 43.0154C43.4992 44.0154 42.4992 44.8154 41.3992 45.6154C40.2992 46.4154 38.9992 47.0154 37.7992 47.6154C36.4992 48.1154 35.1992 48.6154 33.7992 48.8154C33.8992 48.8154 33.7992 48.8154 33.6992 48.8154Z" fill="#0C0F1E"/>
</g>
<path opacity="0.9" d="M30.3 49.2154C28.9 49.2154 27.4 49.1154 26 48.8154C24.6 48.5154 23.3 48.1154 22 47.6154C20.7 47.1154 19.5 46.4154 18.4 45.6154C17.3 44.9154 16.2 44.0154 15.2 43.0154C14.2 42.0154 13.4 41.0154 12.6 39.9154C11.8 38.8154 11.2 37.5154 10.6 36.3154C10.1 35.0154 9.6 33.7154 9.4 32.3154C9.1 30.9154 9 29.5154 9 28.0154C9 26.6154 9.1 25.1154 9.4 23.7154C9.7 22.3154 10.1 21.0154 10.6 19.7154C11.1 18.4154 11.8 17.2154 12.6 16.1154C13.4 15.0154 14.2 13.9154 15.2 13.0154C16.2 12.0154 17.2 11.2154 18.3 10.4154C19.4 9.61543 20.6 9.01543 21.9 8.41543C23.2 7.91543 24.5 7.41543 25.9 7.21543C28.6 6.61543 31.4 6.61543 34.1 7.11543C34.8 7.21543 35.2 7.91543 35.1 8.51543C35 9.21543 34.3 9.61543 33.7 9.51543C31.3 9.01543 28.8 9.11543 26.4 9.61543C25.2 9.81543 24 10.2154 22.9 10.7154C21.8 11.2154 20.7 11.8154 19.7 12.4154C18.7 13.1154 17.8 13.8154 16.9 14.7154C16 15.6154 15.3 16.5154 14.6 17.5154C13.9 18.5154 13.3 19.6154 12.9 20.7154C12.4 21.8154 12 23.0154 11.8 24.2154C11.5 25.4154 11.4 26.7154 11.4 28.0154C11.4 29.3154 11.5 30.6154 11.8 31.8154C12 33.0154 12.4 34.2154 12.9 35.3154C13.4 36.4154 14 37.5154 14.6 38.5154C15.3 39.5154 16 40.4154 16.9 41.3154C17.8 42.2154 18.7 42.9154 19.7 43.6154C20.7 44.3154 21.8 44.9154 22.9 45.3154C24 45.8154 25.2 46.1154 26.4 46.4154C28.9 46.9154 31.5 46.9154 34 46.4154C34.6 46.3154 35.3 46.7154 35.4 47.3154C35.5 48.0154 35.1 48.6154 34.5 48.7154C33.1 49.1154 31.7 49.2154 30.3 49.2154Z" fill="#FF0027"/>
<path opacity="0.9" d="M82.2992 40.9673C82.2992 41.4673 82.0992 41.8673 81.6992 42.2673C81.2992 42.6673 80.7992 42.7673 80.2992 42.7673C79.4992 42.7673 78.8992 42.3673 78.3992 41.6673L72.7992 32.8673C72.1992 31.8673 71.4992 31.1673 70.6992 30.7673C69.9992 30.3673 68.9992 30.1673 67.7992 30.1673H63.0992V40.4673C63.0992 41.1673 62.8992 41.6673 62.4992 42.0673C62.0992 42.4673 61.5992 42.6673 60.8992 42.6673C60.2992 42.6673 59.6992 42.4673 59.2992 42.0673C58.8992 41.6673 58.6992 41.1673 58.6992 40.4673V14.8673C58.6992 14.2673 58.8992 13.6673 59.2992 13.3673C59.6992 12.9673 60.1992 12.7673 60.8992 12.7673H71.3992C74.6992 12.7673 77.1992 13.4673 78.8992 14.9673C80.5992 16.4673 81.4992 18.5673 81.4992 21.3673C81.4992 23.6673 80.7992 25.5673 79.4992 27.0673C78.1992 28.4673 76.2992 29.4673 73.8992 29.8673C74.5992 30.0673 75.2992 30.3673 75.8992 30.9673C76.4992 31.4673 77.0992 32.1673 77.5992 33.0673L81.8992 39.8673C82.1992 40.1673 82.2992 40.5673 82.2992 40.9673ZM70.8992 26.6673C73.0992 26.6673 74.6992 26.2673 75.7992 25.3673C76.8992 24.4673 77.3992 23.1673 77.3992 21.3673C77.3992 19.5673 76.8992 18.2673 75.7992 17.4673C74.7992 16.6673 73.0992 16.2673 70.8992 16.2673H62.9992V26.6673H70.8992Z" fill="#0C0F1E"/>
<path d="M92.5984 42.7673C91.9984 42.7673 91.3984 42.2673 91.3984 41.5673V24.2673C91.3984 23.6673 91.8984 23.0673 92.5984 23.0673C93.2984 23.0673 93.7984 23.5673 93.7984 24.2673V41.6673C93.6984 42.2673 93.1984 42.7673 92.5984 42.7673Z" fill="#0C0F1E" fill-opacity="0.6"/>
<path opacity="0.9" d="M92.5988 17.3673C93.8691 17.3673 94.8988 16.3375 94.8988 15.0673C94.8988 13.797 93.8691 12.7673 92.5988 12.7673C91.3286 12.7673 90.2988 13.797 90.2988 15.0673C90.2988 16.3375 91.3286 17.3673 92.5988 17.3673Z" fill="#FF0027"/>
<path opacity="0.9" d="M109.398 40.9673C107.298 39.7673 105.698 38.0673 104.598 35.7673C103.498 33.4673 102.898 30.8673 102.898 27.7673C102.898 24.6673 103.498 22.0673 104.598 19.7673C105.698 17.4673 107.298 15.7673 109.398 14.5673C111.498 13.3673 113.898 12.7673 116.698 12.7673C118.498 12.7673 120.298 13.0673 121.898 13.6673C123.498 14.2673 124.998 15.0673 126.198 16.1673C126.698 16.5673 126.998 17.1673 126.998 17.8673C126.998 18.3673 126.898 18.7673 126.598 19.1673C126.298 19.4673 125.998 19.6673 125.598 19.6673C125.098 19.6673 124.698 19.4673 124.198 19.1673C122.898 18.1673 121.698 17.4673 120.598 17.0673C119.498 16.6673 118.298 16.4673 116.898 16.4673C113.798 16.4673 111.498 17.4673 109.898 19.4673C108.298 21.4673 107.398 24.2673 107.398 27.9673C107.398 31.6673 108.198 34.5673 109.898 36.4673C111.498 38.4673 113.898 39.4673 116.898 39.4673C118.198 39.4673 119.398 39.2673 120.498 38.8673C121.598 38.4673 122.798 37.7673 124.198 36.7673C124.798 36.3673 125.198 36.2673 125.598 36.2673C125.998 36.2673 126.298 36.4673 126.598 36.7673C126.898 37.0673 126.998 37.5673 126.998 38.0673C126.998 38.7673 126.698 39.2673 126.198 39.7673C124.998 40.8673 123.498 41.6673 121.898 42.2673C120.298 42.8673 118.498 43.1673 116.698 43.1673C113.898 42.7673 111.498 42.1673 109.398 40.9673Z" fill="#0C0F1E"/>
<path opacity="0.9" d="M163.5 40.8673C163.5 41.3673 163.3 41.8673 162.9 42.1673C162.5 42.5673 162 42.6673 161.5 42.6673C161.1 42.6673 160.8 42.5673 160.5 42.3673C160.2 42.1673 159.9 41.8673 159.8 41.4673L157 35.1673H141.7L138.9 41.4673C138.7 41.8673 138.5 42.1673 138.1 42.3673C137.8 42.5673 137.4 42.6673 137.1 42.6673C136.5 42.6673 136 42.4673 135.6 42.1673C135.2 41.7673 135 41.3673 135 40.8673C135 40.6673 135.1 40.3673 135.2 40.0673L147 14.1673C147.2 13.7673 147.5 13.3673 147.9 13.1673C148.3 12.8673 148.8 12.7673 149.3 12.7673C149.8 12.7673 150.2 12.8673 150.7 13.1673C151.1 13.4673 151.4 13.7673 151.6 14.1673L163.4 40.0673C163.5 40.3673 163.5 40.6673 163.5 40.8673ZM143.1 31.8673H155.4L149.2 17.9673L143.1 31.8673Z" fill="#0C0F1E"/>
</svg>
